<?xml version="1.0" standalone="no"?>
<!DOCTYPE svg PUBLIC "-//W3C//DTD SVG 20010904//EN"
 "http://www.w3.org/TR/2001/REC-SVG-20010904/DTD/svg10.dtd">
<svg version="1.0" xmlns="http://www.w3.org/2000/svg"
 width="920.000000pt" height="964.000000pt" viewBox="0 0 920.000000 964.000000"
 preserveAspectRatio="xMidYMid meet">
<metadata>
Created by potrace 1.15, written by Peter Selinger 2001-2017
</metadata>
<g transform="translate(0.000000,964.000000) scale(0.100000,-0.100000)"
fill="#000000" stroke="none">
<path d="M4990 7675 c-876 -876 -1560 -1553 -1568 -1550 -9 3 -1605 1254
-1923 1507 l-36 29 -432 -215 -431 -216 0 -2010 0 -2010 431 -215 c245 -123
435 -212 442 -208 7 4 449 347 982 763 534 416 976 759 983 764 10 6 458 -437
1564 -1548 852 -856 1555 -1556 1560 -1556 6 0 467 186 1024 412 l1014 413 0
3192 0 3191 -1018 406 c-560 223 -1022 406 -1028 406 -5 0 -709 -700 -1564
-1555z m1500 -2455 c0 -792 -3 -1440 -7 -1440 -10 0 -1857 1428 -1860 1438 -2
8 1847 1442 1860 1442 4 0 7 -648 7 -1440z m-4458 453 l487 -488 -485 -440
c-267 -242 -489 -441 -494 -443 -7 -2 -10 333 -10 927 0 512 3 931 8 931 4 0
226 -219 494 -487z"/>
</g>
</svg>
