<?xml version="1.0" standalone="no"?>
<!DOCTYPE svg PUBLIC "-//W3C//DTD SVG 20010904//EN"
 "http://www.w3.org/TR/2001/REC-SVG-20010904/DTD/svg10.dtd">
<svg version="1.0" xmlns="http://www.w3.org/2000/svg"
 width="1200.000000pt" height="680.000000pt" viewBox="0 0 1200.000000 680.000000"
 preserveAspectRatio="xMidYMid meet">
<metadata>
Created by potrace 1.15, written by Peter Selinger 2001-2017
</metadata>
<g transform="translate(0.000000,680.000000) scale(0.100000,-0.100000)"
fill="#000000" stroke="none">
<path d="M3087 6409 c-1019 -90 -1942 -736 -2407 -1684 -191 -390 -286 -746
-309 -1167 -42 -734 196 -1464 669 -2058 114 -142 360 -385 500 -494 423 -328
861 -519 1385 -603 161 -26 631 -26 800 1 716 111 1449 504 2184 1169 l94 85
96 -88 c703 -649 1451 -1048 2186 -1167 154 -25 642 -25 793 0 339 55 615 145
907 295 144 74 374 224 505 328 121 96 382 360 480 484 570 719 788 1627 604
2505 -168 794 -676 1519 -1374 1960 -119 75 -380 206 -516 259 -444 172 -976
227 -1444 150 -713 -117 -1487 -544 -2206 -1217 l-32 -29 -147 132 c-520 464
-1011 771 -1552 971 -389 144 -821 203 -1216 168z m935 -509 c6 0 8 -6 5 -13
-3 -7 -116 -165 -251 -352 -213 -293 -246 -344 -246 -375 0 -19 11 -199 24
-400 13 -201 22 -368 20 -371 -2 -3 22 -14 53 -23 133 -42 434 -212 603 -340
170 -129 494 -419 650 -580 l45 -47 -180 -178 c-202 -199 -344 -323 -516 -451
-196 -146 -401 -265 -561 -325 -40 -15 -77 -31 -81 -35 -5 -4 104 -151 242
-326 235 -298 251 -321 251 -359 -1 -102 -48 -813 -54 -824 -4 -6 -16 -11 -27
-11 -24 0 -24 -25 5 465 l24 390 -37 47 c-459 592 -464 598 -496 593 -85 -15
-253 -16 -320 -2 -328 70 -614 322 -748 662 -36 90 -67 227 -67 292 0 29 -3
34 -17 28 -10 -3 -188 -67 -396 -140 l-378 -134 -392 138 -392 139 -3 31 c-3
29 -2 30 20 22 13 -5 190 -68 394 -140 l372 -132 393 140 394 139 8 68 c9 91
49 228 92 321 129 278 395 510 671 584 91 24 282 30 348 11 22 -6 42 -10 44
-7 4 4 -33 646 -43 751 -5 48 -3 53 53 130 32 43 147 202 256 352 141 194 202
272 213 268 8 -3 19 -6 25 -6z m4256 -342 l253 -350 -25 -401 c-14 -221 -24
-402 -23 -403 1 -1 38 5 82 13 191 34 416 -24 609 -157 239 -165 417 -440 456
-705 6 -44 15 -91 18 -105 7 -22 44 -38 397 -163 l390 -138 330 117 c182 64
358 127 393 140 l63 24 -3 -32 -3 -31 -390 -138 -390 -139 -390 139 c-426 151
-403 147 -404 70 -2 -69 -51 -234 -101 -335 -136 -278 -388 -496 -660 -570
-70 -19 -268 -25 -351 -11 l-46 8 -239 -307 c-132 -170 -245 -317 -253 -327
-12 -17 -11 -74 8 -421 12 -221 23 -413 26 -427 3 -23 1 -25 -21 -21 -14 2
-27 10 -30 16 -2 6 -15 199 -29 430 -20 334 -22 421 -12 435 6 9 119 155 250
324 131 168 238 310 238 314 0 4 -23 15 -53 25 -100 34 -313 146 -448 236
-225 150 -490 374 -743 629 l-98 99 178 175 c412 405 777 667 1094 784 l75 28
25 405 24 405 -252 348 c-139 191 -253 350 -253 353 0 5 26 13 45 14 6 1 124
-157 263 -350z m1242 -508 c19 -46 -23 -110 -72 -110 -20 0 -88 31 -88 40 0 3
16 36 36 73 l36 67 38 -21 c21 -12 44 -34 50 -49z m-1655 -40 c41 -80 40 -76
20 -84 -9 -3 -37 8 -63 24 -25 16 -48 27 -50 25 -2 -2 6 -22 18 -44 18 -37 19
-42 5 -47 -20 -8 -16 -12 -54 64 -44 88 -28 105 56 55 l45 -26 -22 43 c-18 34
-19 44 -8 51 7 5 14 9 15 9 2 0 19 -31 38 -70z m-5387 -32 c35 -53 39 -65 28
-76 -11 -11 -22 -9 -64 12 -28 14 -54 26 -57 26 -3 0 7 -18 21 -40 21 -31 24
-44 16 -52 -15 -15 -19 -10 -66 64 -31 49 -34 58 -20 69 12 10 23 8 61 -10 25
-12 48 -20 50 -17 3 3 -5 19 -17 35 -20 29 -20 51 -1 51 5 0 27 -28 49 -62z
m5213 -21 c43 -33 49 -84 15 -123 -62 -73 -179 5 -134 89 17 32 39 46 73 46
17 0 37 -5 46 -12z m2278 -233 c28 -36 27 -79 -4 -109 -51 -52 -135 -18 -135
54 0 76 94 113 139 55z m-2862 -162 c17 -11 -1 -36 -21 -29 -17 7 -56 -24 -56
-43 0 -6 11 -22 24 -35 30 -30 69 -22 75 16 3 23 3 23 -17 6 -32 -29 -40 0 -8
31 l26 26 29 -28 30 -29 -39 -39 c-49 -47 -80 -49 -121 -9 -44 44 -37 98 16
129 23 13 45 15 62 4z m-1839 -278 c30 -34 28 -70 -7 -105 -38 -37 -79 -38
-115 -3 -30 31 -34 69 -10 102 33 48 92 50 132 6z m1572 -121 c0 -6 -4 -14 -8
-17 -7 -4 -66 6 -117 20 -15 5 -10 -4 18 -33 32 -33 36 -42 24 -52 -12 -9 -24
-1 -66 48 -44 50 -49 60 -36 71 12 10 25 10 59 1 63 -16 64 -15 28 22 -25 26
-29 36 -20 45 10 10 24 1 65 -40 29 -29 53 -58 53 -65z m-1481 33 c8 -10 9
-26 2 -57 -15 -64 -14 -66 22 -31 28 27 36 30 45 19 9 -10 -1 -26 -47 -71 -49
-49 -59 -55 -70 -42 -9 11 -10 24 -2 53 6 21 11 47 11 57 0 17 -5 15 -35 -14
-22 -22 -39 -30 -45 -24 -6 6 9 30 41 67 54 61 60 65 78 43z m278 -287 c8 -8
7 -25 -3 -62 -8 -29 -14 -54 -14 -56 0 -3 16 10 35 29 28 27 38 31 47 22 10
-10 0 -25 -44 -69 -47 -47 -59 -54 -71 -44 -13 10 -13 19 -1 64 19 73 18 75
-19 39 -35 -34 -57 -41 -57 -18 0 14 95 106 109 106 4 0 12 -5 18 -11z m265
-277 c10 -9 20 -31 24 -49 5 -27 1 -37 -24 -63 -40 -39 -83 -41 -117 -4 -73
79 41 190 117 116z m627 -687 c17 -20 31 -43 31 -51 0 -29 -29 -71 -59 -83
-33 -14 -70 -1 -105 38 -20 22 -20 22 34 76 30 30 57 55 61 55 4 0 21 -16 38
-35z m115 -116 c32 -37 33 -52 4 -76 -13 -10 -28 -28 -34 -38 -18 -32 -55 -30
-89 5 l-29 30 54 55 c30 30 57 55 61 55 4 0 19 -14 33 -31z m-1467 -281 c31
-34 36 -63 18 -97 -15 -31 -51 -47 -90 -42 -30 3 -65 48 -65 82 0 68 92 106
137 57z m-225 -281 c18 -25 18 -28 3 -34 -10 -3 -40 1 -68 10 -28 9 -52 15
-54 14 -1 -2 11 -19 27 -39 24 -30 27 -38 16 -47 -11 -9 -24 1 -64 51 -46 58
-48 64 -32 75 15 10 26 10 61 -2 51 -18 60 -13 29 20 -15 16 -20 30 -15 42 6
16 11 13 42 -22 19 -22 44 -52 55 -68z m-2828 -57 c30 -36 23 -71 -15 -81 -13
-4 -20 -7 -16 -8 4 -1 3 -10 -3 -22 -16 -30 -67 -22 -94 14 l-21 29 53 49 c29
27 57 49 62 49 4 0 20 -14 34 -30z m2485 -143 c22 -35 41 -66 41 -69 0 -17
-36 -14 -85 7 -30 14 -55 23 -55 22 0 -2 11 -18 25 -37 28 -38 32 -60 11 -60
-7 0 -32 28 -55 63 -36 55 -39 63 -25 74 13 9 27 7 70 -12 l53 -24 -25 39
c-24 36 -25 60 -5 60 5 0 27 -28 50 -63z m-150 -83 c44 -56 8 -134 -62 -134
-52 0 -82 40 -78 103 4 57 102 79 140 31z m-1936 -106 c38 -44 0 -128 -59
-128 -28 0 -97 37 -91 48 2 4 21 35 41 70 l38 63 27 -17 c14 -9 34 -25 44 -36z
m6916 -53 c16 -8 34 -28 40 -45 29 -83 -75 -148 -134 -84 -40 44 -26 112 29
134 29 12 33 12 65 -5z"/>
</g>
</svg>
