<?xml version="1.0" standalone="no"?>
<!DOCTYPE svg PUBLIC "-//W3C//DTD SVG 20010904//EN"
 "http://www.w3.org/TR/2001/REC-SVG-20010904/DTD/svg10.dtd">
<svg version="1.0" xmlns="http://www.w3.org/2000/svg"
 width="225.000000pt" height="225.000000pt" viewBox="0 0 225.000000 225.000000"
 preserveAspectRatio="xMidYMid meet">
<metadata>
Created by potrace 1.15, written by Peter Selinger 2001-2017
</metadata>
<g transform="translate(0.000000,225.000000) scale(0.100000,-0.100000)"
fill="#000000" stroke="none">
<path d="M1065 2171 c-22 -10 -83 -62 -135 -115 l-95 -96 120 -120 120 -120
48 0 c103 0 172 -67 171 -165 l-1 -53 113 -113 113 -113 48 2 c138 6 222 -154
138 -264 -71 -93 -204 -85 -273 16 -20 29 -23 44 -20 92 l4 57 -103 103 -103
103 0 -282 0 -281 34 -34 c67 -67 68 -168 2 -234 -65 -65 -167 -65 -232 0 -68
68 -65 169 7 238 l39 37 0 286 0 286 -32 27 c-44 38 -71 102 -63 155 l6 42
-118 118 -118 117 -327 -327 c-344 -346 -358 -364 -343 -436 6 -25 109 -134
498 -525 355 -355 501 -495 526 -503 78 -26 76 -27 590 484 348 348 478 483
493 516 40 87 59 63 -480 605 -278 278 -501 494 -519 502 -42 18 -60 17 -108
-5z"/>
</g>
</svg>
